<svg width="28" height="29" viewBox="0 0 28 29" fill="none" xmlns="http://www.w3.org/2000/svg">
<path d="M14 25.6396C11.7502 25.6396 9.551 24.9725 7.68039 23.7226C5.80978 22.4727 4.35182 20.6962 3.49088 18.6177C2.62993 16.5392 2.40467 14.252 2.84357 12.0455C3.28248 9.83896 4.36584 7.81213 5.95667 6.22131C7.54749 4.63049 9.57432 3.54712 11.7809 3.10822C13.9874 2.66931 16.2745 2.89457 18.353 3.75552C20.4315 4.61647 22.2081 6.07443 23.458 7.94504C24.7079 9.81565 25.375 12.0149 25.375 14.2646C25.3718 17.2805 24.1724 20.1719 22.0398 22.3045C19.9073 24.437 17.0159 25.6365 14 25.6396ZM18.1191 14.5206C18.0378 14.4392 17.9413 14.3747 17.8351 14.3307C17.7289 14.2866 17.615 14.264 17.5 14.264C17.385 14.264 17.2712 14.2866 17.1649 14.3307C17.0587 14.3747 16.9622 14.4392 16.8809 14.5206L14.875 16.5276V9.88965C14.875 9.65759 14.7828 9.43502 14.6187 9.27093C14.4546 9.10684 14.2321 9.01465 14 9.01465C13.7679 9.01465 13.5454 9.10684 13.3813 9.27093C13.2172 9.43502 13.125 9.65759 13.125 9.88965V16.5276L11.1191 14.5206C10.9549 14.3564 10.7322 14.2642 10.5 14.2642C10.2678 14.2642 10.0451 14.3564 9.88094 14.5206C9.71676 14.6848 9.62452 14.9075 9.62452 15.1396C9.62452 15.3718 9.71676 15.5945 9.88094 15.7587L13.3809 19.2587C13.4622 19.3401 13.5587 19.4046 13.6649 19.4486C13.7712 19.4927 13.885 19.5153 14 19.5153C14.115 19.5153 14.2289 19.4927 14.3351 19.4486C14.4413 19.4046 14.5378 19.3401 14.6191 19.2587L18.1191 15.7587C18.2004 15.6774 18.265 15.5809 18.309 15.4747C18.353 15.3685 18.3757 15.2546 18.3757 15.1396C18.3757 15.0247 18.353 14.9108 18.309 14.8046C18.265 14.6984 18.2004 14.6019 18.1191 14.5206Z" fill="#EB5347"/>
</svg>
