<svg width="806" height="280" viewBox="0 0 806 280" fill="none" xmlns="http://www.w3.org/2000/svg">
<g clip-path="url(#clip0_109_1451)">
<rect width="806" height="280" rx="12" fill="#261722"/>
<path opacity="0.0526316" d="M290.189 291.342C302.849 308.185 343.312 336.37 403.883 314.365C479.596 286.858 508.879 213.946 576.454 176.14C626.33 148.236 760.348 106.351 837.411 152.634" stroke="url(#paint0_linear_109_1451)" stroke-opacity="0.18" stroke-width="3.14685"/>
<path opacity="0.105263" d="M277.702 256.032C288.532 274.106 325.827 306.366 388.366 290.813C466.54 271.371 503.283 201.919 574.44 171.384C626.96 148.846 764.622 121.199 836.424 175.284" stroke="url(#paint1_linear_109_1451)" stroke-opacity="0.18" stroke-width="3.14685"/>
<path opacity="0.157895" d="M268.267 220.246C277.149 239.353 310.867 275.335 374.69 266.404C454.468 255.24 498.27 190.009 572.229 167.079C626.816 150.155 766.614 137.049 832.37 198.343" stroke="url(#paint2_linear_109_1451)" stroke-opacity="0.18" stroke-width="3.14685"/>
<path opacity="0.210526" d="M261.921 184.305C268.756 204.236 298.529 243.545 362.935 241.334C443.443 238.571 493.824 178.276 569.775 163.202C625.832 152.077 766.234 153.655 825.223 221.487" stroke="url(#paint3_linear_109_1451)" stroke-opacity="0.18" stroke-width="3.14685"/>
<path opacity="0.263158" d="M258.658 148.534C263.373 169.07 288.874 211.276 353.159 215.81C433.514 221.477 489.921 166.778 567.032 159.726C623.945 154.521 763.413 170.767 814.988 244.394" stroke="url(#paint4_linear_109_1451)" stroke-opacity="0.18" stroke-width="3.14685"/>
<path opacity="0.315789" d="M258.448 113.253C260.991 134.169 281.94 178.809 345.398 190.038C424.722 204.073 486.537 155.57 563.962 156.617C621.108 157.39 758.114 188.125 801.71 266.739" stroke="url(#paint5_linear_109_1451)" stroke-opacity="0.18" stroke-width="3.14685"/>
<path opacity="0.368421" d="M261.222 78.7777C261.564 99.8453 277.732 146.431 339.669 164.231C417.091 186.481 483.638 144.705 560.53 153.839C617.281 160.581 750.324 205.469 785.464 288.21" stroke="url(#paint6_linear_109_1451)" stroke-opacity="0.18" stroke-width="3.14685"/>
<path opacity="0.421053" d="M266.878 45.4183C265.016 66.4063 276.226 114.427 335.964 138.603C410.635 168.824 481.185 134.234 556.7 151.355C612.436 163.992 740.058 222.541 766.357 308.501" stroke="url(#paint7_linear_109_1451)" stroke-opacity="0.18" stroke-width="3.14685"/>
<path opacity="0.473684" d="M275.284 13.4675C271.238 34.1459 277.368 83.0749 334.251 113.363C405.354 151.224 479.133 124.197 552.445 149.118C606.555 167.512 727.357 239.08 744.526 327.319" stroke="url(#paint8_linear_109_1451)" stroke-opacity="0.18" stroke-width="3.14685"/>
<path opacity="0.526316" d="M286.278 -16.7948C280.093 3.34746 281.074 52.649 334.48 88.7175C401.236 133.803 477.436 114.636 547.741 147.084C599.632 171.033 712.292 254.837 720.144 344.386" stroke="url(#paint9_linear_109_1451)" stroke-opacity="0.18" stroke-width="3.14685"/>
<path opacity="0.578947" d="M299.669 -45.1065C291.413 -25.7211 287.236 23.413 336.578 64.8662C398.256 116.683 476.042 105.586 542.57 145.205C591.673 174.447 694.956 269.568 693.405 359.447" stroke="url(#paint10_linear_109_1451)" stroke-opacity="0.18" stroke-width="3.14685"/>
<path opacity="0.631579" d="M315.241 -71.2266C305.003 -52.8104 295.713 -4.38213 340.452 42.0017C396.376 99.9815 474.895 97.0765 536.918 143.433C582.696 177.647 675.47 283.042 664.532 372.268" stroke="url(#paint11_linear_109_1451)" stroke-opacity="0.18" stroke-width="3.14685"/>
<path opacity="0.684211" d="M332.752 -94.9416C320.645 -77.6964 306.344 -30.5046 345.989 20.3017C395.546 83.8096 473.939 89.1279 530.777 141.713C572.727 180.525 653.976 295.041 633.771 382.634" stroke="url(#paint12_linear_109_1451)" stroke-opacity="0.18" stroke-width="3.14685"/>
<path opacity="0.736842" d="M351.94 -116.06C338.097 -100.175 318.941 -54.7366 353.058 -0.0645591C395.706 68.2755 473.113 81.759 524.143 139.997C561.806 182.982 630.64 305.363 601.39 390.364" stroke="url(#paint13_linear_109_1451)" stroke-opacity="0.18" stroke-width="3.14685"/>
<path opacity="0.789474" d="M372.524 -134.423C357.096 -120.071 333.295 -76.8843 361.511 -18.9455C396.781 53.4781 472.355 74.9789 517.018 138.232C549.982 184.918 605.646 313.824 567.672 395.302" stroke="url(#paint14_linear_109_1451)" stroke-opacity="0.18" stroke-width="3.14685"/>
<path opacity="0.842105" d="M394.21 -149.897C377.367 -137.237 349.182 -96.774 371.187 -36.2032C398.694 39.5103 471.606 68.793 509.412 136.368C537.316 186.244 579.201 320.262 532.917 397.325" stroke="url(#paint15_linear_109_1451)" stroke-opacity="0.18" stroke-width="3.14685"/>
<path opacity="0.894737" d="M416.688 -162.384C398.614 -151.554 366.354 -114.259 381.907 -51.7203C401.349 26.4537 470.801 63.1974 501.336 134.354C523.874 186.874 551.52 324.536 497.435 396.338" stroke="url(#paint16_linear_109_1451)" stroke-opacity="0.18" stroke-width="3.14685"/>
<path opacity="0.947368" d="M439.642 -171.818C420.535 -162.937 384.553 -129.218 393.484 -65.3958C404.648 14.3821 469.879 58.1842 492.809 132.143C509.733 186.731 522.839 326.529 461.545 392.284" stroke="url(#paint17_linear_109_1451)" stroke-opacity="0.18" stroke-width="3.14685"/>
<path d="M462.752 -178.165C442.821 -171.329 403.512 -141.557 405.723 -77.1505C408.486 3.35733 468.781 53.738 483.855 129.689C494.981 185.746 493.402 326.148 425.57 385.137" stroke="url(#paint18_linear_109_1451)" stroke-opacity="0.18" stroke-width="3.14685"/>
</g>
<rect x="0.5" y="0.5" width="805" height="279" rx="11.5" stroke="#32192B"/>
<defs>
<linearGradient id="paint0_linear_109_1451" x1="294.953" y1="306.004" x2="830.685" y2="131.934" gradientUnits="userSpaceOnUse">
<stop stop-color="#E232B1" stop-opacity="0"/>
<stop offset="1" stop-color="#7C1B61"/>
</linearGradient>
<linearGradient id="paint1_linear_109_1451" x1="280.907" y1="271.111" x2="831.899" y2="153.994" gradientUnits="userSpaceOnUse">
<stop stop-color="#E232B1" stop-opacity="0"/>
<stop offset="1" stop-color="#7C1B61"/>
</linearGradient>
<linearGradient id="paint2_linear_109_1451" x1="269.879" y1="235.578" x2="830.095" y2="176.697" gradientUnits="userSpaceOnUse">
<stop stop-color="#E232B1" stop-opacity="0"/>
<stop offset="1" stop-color="#7C1B61"/>
</linearGradient>
<linearGradient id="paint3_linear_109_1451" x1="261.921" y1="199.722" x2="825.223" y2="199.722" gradientUnits="userSpaceOnUse">
<stop stop-color="#E232B1" stop-opacity="0"/>
<stop offset="1" stop-color="#7C1B61"/>
</linearGradient>
<linearGradient id="paint4_linear_109_1451" x1="257.047" y1="163.866" x2="817.263" y2="222.747" gradientUnits="userSpaceOnUse">
<stop stop-color="#E232B1" stop-opacity="0"/>
<stop offset="1" stop-color="#7C1B61"/>
</linearGradient>
<linearGradient id="paint5_linear_109_1451" x1="255.243" y1="128.332" x2="806.235" y2="245.449" gradientUnits="userSpaceOnUse">
<stop stop-color="#E232B1" stop-opacity="0"/>
<stop offset="1" stop-color="#7C1B61"/>
</linearGradient>
<linearGradient id="paint6_linear_109_1451" x1="256.458" y1="93.4394" x2="792.19" y2="267.509" gradientUnits="userSpaceOnUse">
<stop stop-color="#E232B1" stop-opacity="0"/>
<stop offset="1" stop-color="#7C1B61"/>
</linearGradient>
<linearGradient id="paint7_linear_109_1451" x1="260.608" y1="59.5017" x2="775.209" y2="288.617" gradientUnits="userSpaceOnUse">
<stop stop-color="#E232B1" stop-opacity="0"/>
<stop offset="1" stop-color="#7C1B61"/>
</linearGradient>
<linearGradient id="paint8_linear_109_1451" x1="267.576" y1="26.8184" x2="755.409" y2="308.469" gradientUnits="userSpaceOnUse">
<stop stop-color="#E232B1" stop-opacity="0"/>
<stop offset="1" stop-color="#7C1B61"/>
</linearGradient>
<linearGradient id="paint9_linear_109_1451" x1="277.217" y1="-4.32282" x2="732.937" y2="326.778" gradientUnits="userSpaceOnUse">
<stop stop-color="#E232B1" stop-opacity="0"/>
<stop offset="1" stop-color="#7C1B61"/>
</linearGradient>
<linearGradient id="paint10_linear_109_1451" x1="289.354" y1="-33.65" x2="707.969" y2="343.272" gradientUnits="userSpaceOnUse">
<stop stop-color="#E232B1" stop-opacity="0"/>
<stop offset="1" stop-color="#7C1B61"/>
</linearGradient>
<linearGradient id="paint11_linear_109_1451" x1="303.784" y1="-60.9111" x2="680.707" y2="357.704" gradientUnits="userSpaceOnUse">
<stop stop-color="#E232B1" stop-opacity="0"/>
<stop offset="1" stop-color="#7C1B61"/>
</linearGradient>
<linearGradient id="paint12_linear_109_1451" x1="320.28" y1="-85.8802" x2="651.38" y2="369.84" gradientUnits="userSpaceOnUse">
<stop stop-color="#E232B1" stop-opacity="0"/>
<stop offset="1" stop-color="#7C1B61"/>
</linearGradient>
<linearGradient id="paint13_linear_109_1451" x1="338.589" y1="-108.352" x2="620.24" y2="379.481" gradientUnits="userSpaceOnUse">
<stop stop-color="#E232B1" stop-opacity="0"/>
<stop offset="1" stop-color="#7C1B61"/>
</linearGradient>
<linearGradient id="paint14_linear_109_1451" x1="358.44" y1="-128.152" x2="587.556" y2="386.449" gradientUnits="userSpaceOnUse">
<stop stop-color="#E232B1" stop-opacity="0"/>
<stop offset="1" stop-color="#7C1B61"/>
</linearGradient>
<linearGradient id="paint15_linear_109_1451" x1="379.548" y1="-145.133" x2="553.618" y2="390.599" gradientUnits="userSpaceOnUse">
<stop stop-color="#E232B1" stop-opacity="0"/>
<stop offset="1" stop-color="#7C1B61"/>
</linearGradient>
<linearGradient id="paint16_linear_109_1451" x1="401.608" y1="-159.179" x2="518.725" y2="391.813" gradientUnits="userSpaceOnUse">
<stop stop-color="#E232B1" stop-opacity="0"/>
<stop offset="1" stop-color="#7C1B61"/>
</linearGradient>
<linearGradient id="paint17_linear_109_1451" x1="424.31" y1="-170.207" x2="483.191" y2="390.009" gradientUnits="userSpaceOnUse">
<stop stop-color="#E232B1" stop-opacity="0"/>
<stop offset="1" stop-color="#7C1B61"/>
</linearGradient>
<linearGradient id="paint18_linear_109_1451" x1="447.336" y1="-178.165" x2="447.336" y2="385.137" gradientUnits="userSpaceOnUse">
<stop stop-color="#E232B1" stop-opacity="0"/>
<stop offset="1" stop-color="#7C1B61"/>
</linearGradient>
<clipPath id="clip0_109_1451">
<rect width="806" height="280" rx="12" fill="white"/>
</clipPath>
</defs>
</svg>
