<svg width="18" height="18" viewBox="0 0 18 18" fill="none" xmlns="http://www.w3.org/2000/svg">
<path d="M16.475 4.17036L9.6 0.408644C9.41631 0.307146 9.20987 0.253906 9 0.253906C8.79013 0.253906 8.58369 0.307146 8.4 0.408644L1.525 4.17193C1.32866 4.27935 1.16477 4.43752 1.05043 4.62991C0.936094 4.82231 0.875508 5.04187 0.875 5.26568V12.7376C0.875508 12.9614 0.936094 13.1809 1.05043 13.3733C1.16477 13.5657 1.32866 13.7239 1.525 13.8313L8.4 17.5946C8.58369 17.6961 8.79013 17.7493 9 17.7493C9.20987 17.7493 9.41631 17.6961 9.6 17.5946L16.475 13.8313C16.6713 13.7239 16.8352 13.5657 16.9496 13.3733C17.0639 13.1809 17.1245 12.9614 17.125 12.7376V5.26646C17.1249 5.04225 17.0645 4.8222 16.9502 4.62936C16.8358 4.43652 16.6717 4.27798 16.475 4.17036ZM9 12.1274C8.38193 12.1274 7.77775 11.9441 7.26384 11.6007C6.74994 11.2574 6.3494 10.7693 6.11288 10.1983C5.87635 9.62726 5.81447 8.99893 5.93505 8.39274C6.05562 7.78655 6.35325 7.22972 6.79029 6.79269C7.22733 6.35565 7.78415 6.05802 8.39034 5.93744C8.99653 5.81686 9.62487 5.87875 10.1959 6.11527C10.7669 6.35179 11.255 6.75233 11.5983 7.26624C11.9417 7.78014 12.125 8.38433 12.125 9.00239C12.125 9.8312 11.7958 10.6261 11.2097 11.2121C10.6237 11.7982 9.8288 12.1274 9 12.1274Z" fill="#DBDFFF"/>
</svg>
