<svg width="130" height="30" viewBox="0 0 130 30" fill="none" xmlns="http://www.w3.org/2000/svg">
<path fill-rule="evenodd" clip-rule="evenodd" d="M9.3686 2.26326C8.24932 2.45109 7.04526 3.18548 6.80222 3.82852C6.54196 4.51703 6.97449 5.13061 7.98023 5.49974C8.32752 5.62718 8.43444 5.64043 9.36057 5.67065C10.4339 5.70568 10.4997 5.72054 10.8375 6.00479C11.0993 6.22509 11.2148 6.50041 11.2147 6.90382C11.2146 7.18611 11.1886 7.30452 11.0825 7.50615C10.9054 7.8424 10.6287 8.09934 10.2641 8.26584C9.808 8.47414 9.52244 8.45512 8.63275 8.15737C7.93741 7.92462 7.88029 7.91378 7.3528 7.91423C6.90361 7.91458 6.74821 7.93526 6.51933 8.02501C5.8395 8.29164 5.45968 8.70313 5.14586 9.51316C4.91848 10.1 4.72408 10.3659 4.36489 10.5814C4.01634 10.7907 3.85793 10.834 3.21178 10.8973C2.52176 10.9649 2.21241 11.0641 1.77171 11.3588C0.689121 12.0829 0.00186273 13.5299 5.54983e-06 15.0889C-0.000747363 15.7228 0.0749953 16.0461 0.295498 16.3506C0.604845 16.7776 1.30967 16.9098 1.88143 16.648C2.61146 16.3138 3.30815 15.5119 3.64621 14.6168C3.98588 13.7175 4.32795 13.3404 4.92531 13.2071C5.45325 13.0892 5.99796 13.4358 6.22087 14.0314C6.31308 14.2778 6.32984 14.4063 6.31303 14.7385C6.28341 15.3239 6.05438 15.7892 5.52724 16.3348C4.74898 17.1403 4.43572 17.6218 4.29126 18.2347C4.19187 18.6561 4.19689 18.9565 4.30938 19.3178C4.43085 19.7082 4.54494 19.8693 5.04422 20.3559C5.37942 20.6825 5.47278 20.8076 5.54445 21.0262C5.67707 21.4303 5.6215 21.6971 5.245 22.464C4.82708 23.3154 4.69622 23.7759 4.69592 24.3965C4.69552 25.2542 5.05351 26.0131 5.76155 26.6557C6.71664 27.5225 7.85334 27.6338 8.47991 26.9219C9.10633 26.2103 9.03837 25.0287 8.29515 23.7102C7.92697 23.0571 7.86032 22.8558 7.85755 22.3887C7.85555 22.0464 7.87778 21.9125 7.97029 21.7111C8.30328 20.9862 9.09881 20.6752 9.79962 20.9961C10.1672 21.1644 10.5095 21.5236 10.6447 21.8828C10.742 22.1412 10.7474 22.2235 10.7151 22.9449C10.6753 23.8332 10.7202 24.1569 10.945 24.6033C11.1354 24.9812 11.4752 25.31 11.8832 25.511C12.2097 25.6718 12.2367 25.6764 12.8478 25.675C13.1936 25.6742 13.704 25.6541 13.9819 25.6303C14.8062 25.5598 15.1008 25.703 15.7909 26.5099C16.2493 27.0457 16.7683 27.4359 17.3014 27.6452C17.6096 27.7663 17.7082 27.7795 18.3202 27.7819C18.8953 27.7842 19.0548 27.7668 19.3743 27.667C20.2433 27.3955 21.0045 26.8471 21.2428 26.3207C21.5763 25.5842 21.1956 24.7992 20.2946 24.3658C19.7952 24.1256 19.3543 24.0921 18.6511 24.241C17.6894 24.4446 17.2215 24.3599 16.7605 23.8989C16.3624 23.5008 16.2869 23.2143 16.4421 22.6916C16.545 22.3451 16.9184 21.9411 17.2811 21.7839C17.8352 21.5438 18.3298 21.5946 19.5163 22.0134C20.6229 22.4041 21.5168 22.2809 22.1986 21.6437C22.4785 21.3822 22.6663 21.107 22.9899 20.4844C23.2457 19.9924 23.654 19.5495 23.9995 19.3892C24.2367 19.2792 24.5207 19.2222 25.3148 19.1251C25.8703 19.0571 26.2167 18.9291 26.5913 18.6534C27.7225 17.8206 28.3436 15.6412 27.8011 14.4079C27.3965 13.488 26.3412 13.3529 25.4802 14.1108C25.171 14.3829 24.6923 15.1083 24.5191 15.5672C24.0674 16.7635 23.5772 17.2373 22.7875 17.2408C21.7837 17.2451 21.1891 16.146 21.6504 15.1385C21.8178 14.7728 22.1901 14.3856 22.7682 13.9758C24.5292 12.7275 24.9588 11.1226 23.7914 10.1531C22.8312 9.35565 22.5655 8.9157 22.5716 8.13358C22.575 7.70396 22.6829 7.35592 23.0087 6.72277C23.3432 6.07275 23.4646 5.60354 23.4264 5.10792C23.3487 4.10047 22.5943 3.04504 21.5995 2.55203C20.6929 2.10279 19.9183 2.29032 19.531 3.05282C19.3826 3.34505 19.308 3.79875 19.3443 4.18896C19.3928 4.71078 19.624 5.32918 20.071 6.13218C20.5472 6.98804 20.6461 7.29217 20.6217 7.82619C20.5803 8.73089 19.9921 9.35239 19.1735 9.35646C18.6131 9.35927 18.0695 9.03838 17.8091 8.55114C17.5101 7.99158 17.507 7.51177 17.7968 6.64542C18.0747 5.815 18.0248 5.15385 17.6359 4.51011C17.2965 3.94838 16.5692 3.50788 16.116 3.47621C15.3866 3.42524 15.0774 4.60303 14.3464 4.61851C14.3316 4.61882 14.3166 4.61894 14.3014 4.61888C13.7806 4.61677 13.3388 4.31952 12.85 3.64255C12.2795 2.85214 11.6773 2.44512 10.8483 2.28947C10.4054 2.20629 9.77447 2.1951 9.3686 2.26326ZM14.715 7.80229C14.9588 7.88938 15.2583 8.13097 15.4305 8.37943C15.5071 8.4899 15.6667 8.81812 15.7851 9.1087C16.0623 9.78893 16.2174 10.0501 16.5544 10.4042C17.0663 10.9421 17.526 11.1285 18.5057 11.1953C19.3266 11.2513 19.5717 11.3439 19.9263 11.7319C20.4585 12.3141 20.4571 13.0588 19.9227 13.7302C19.5972 14.1393 19.2855 14.6269 19.165 14.9156C19.0706 15.142 19.0522 15.2795 19.0516 15.7631C19.051 16.3377 19.0521 16.343 19.2939 16.9408C19.5184 17.4957 19.5351 17.5662 19.5133 17.8698C19.4863 18.2473 19.3889 18.469 19.1304 18.7414C18.7738 19.117 18.6556 19.1509 17.6928 19.1537C16.7559 19.1565 16.6068 19.1886 16.1848 19.479C15.8849 19.6853 15.6267 20.0197 15.3429 20.5692C14.9726 21.286 14.5662 21.5829 13.9533 21.584C13.3195 21.5852 12.946 21.2999 12.5479 20.5102C12.2746 19.9682 11.9018 19.5482 11.5085 19.3392C11.1304 19.1384 10.98 19.1141 10.0704 19.1069C9.38898 19.1016 9.28648 19.0893 9.07948 18.9872C8.54873 18.7257 8.26112 18.2735 8.2581 17.6956C8.25574 17.2421 8.36336 16.9662 8.71221 16.5314C9.14248 15.995 9.26018 15.7168 9.26018 15.2361C9.26018 14.7455 9.16095 14.5171 8.69941 13.9454C8.24611 13.3839 8.16203 13.2011 8.16183 12.7765C8.16163 12.3562 8.29324 12.0207 8.57247 11.7297C8.93934 11.3475 9.20301 11.2306 9.95281 11.1179C10.8552 10.9823 11.3915 10.7053 11.9787 10.0715C12.2437 9.78552 12.3727 9.58313 12.6289 9.05193C13.0357 8.20821 13.2901 7.91769 13.7407 7.78202C13.9541 7.71772 14.5107 7.72931 14.715 7.80229Z" fill="url(#paint0_linear_370_2221)"/>
<path d="M37.4062 10.8672C37.4062 10.125 37.5898 9.44922 37.957 8.83984C38.332 8.23047 38.832 7.74609 39.457 7.38672C40.0898 7.01953 40.7852 6.83594 41.543 6.83594H50.168V9.29688H41.543C41.0898 9.29688 40.6992 9.45703 40.3711 9.77734C40.043 10.0977 39.8789 10.4844 39.8789 10.9375V12.0859C39.8789 12.5 40.043 12.8555 40.3711 13.1523C40.6992 13.4492 41.0898 13.5977 41.543 13.5977H46.8516C47.6172 13.5977 48.3125 13.7812 48.9375 14.1484C49.5625 14.5078 50.0586 14.9961 50.4258 15.6133C50.8008 16.2227 50.9883 16.8984 50.9883 17.6406V19.457C50.9883 20.1992 50.8008 20.8789 50.4258 21.4961C50.0586 22.1055 49.5625 22.5938 48.9375 22.9609C48.3125 23.3203 47.6172 23.5 46.8516 23.5H37.418V21.0273H46.8516C47.3125 21.0273 47.7031 20.875 48.0234 20.5703C48.3516 20.2578 48.5156 19.8828 48.5156 19.4453V17.6523C48.5156 17.2148 48.3516 16.8398 48.0234 16.5273C47.7031 16.2148 47.3125 16.0586 46.8516 16.0586H41.543C40.7852 16.0586 40.0898 15.8828 39.457 15.5312C38.832 15.1719 38.332 14.6914 37.957 14.0898C37.5898 13.4883 37.4062 12.8242 37.4062 12.0977V10.8672ZM55.7344 11.3594L58.8867 19.7734L62.1094 11.3594H64.8398L58.3945 28.0703H55.6875L57.5742 23.1016L53.1094 11.3594H55.7344ZM66.4922 13.8203C66.4922 13.1406 66.7344 12.5625 67.2188 12.0859C67.7109 11.6016 68.3008 11.3594 68.9883 11.3594H73.2656C74.0703 11.3594 74.8047 11.5586 75.4688 11.957C76.1328 12.3477 76.6602 12.875 77.0508 13.5391C77.4492 14.2031 77.6484 14.9375 77.6484 15.7422V23.5H75.1758V15.7773C75.1758 15.2305 74.9883 14.7656 74.6133 14.3828C74.2461 14 73.7969 13.8086 73.2656 13.8086H68.9648V23.5H66.4922V13.8203ZM79.875 11.3594H81.457V6.83594H83.9297V11.3594H87.668V13.832H83.9297V20.0547C83.9297 20.3203 84.0312 20.5508 84.2344 20.7461C84.4453 20.9336 84.6953 21.0273 84.9844 21.0273H87.668V23.5H84.9492C84.3086 23.5 83.7227 23.3477 83.1914 23.043C82.668 22.7305 82.2461 22.3164 81.9258 21.8008C81.6133 21.2773 81.457 20.6992 81.457 20.0664V13.832H79.875V11.3594ZM89.9062 6.83594H92.3789V11.3594H96.1992C97.043 11.3594 97.8086 11.5586 98.4961 11.957C99.1914 12.3477 99.7422 12.875 100.148 13.5391C100.562 14.1953 100.77 14.9258 100.77 15.7305V23.5H98.2969V15.7656C98.2969 15.25 98.0859 14.8008 97.6641 14.418C97.25 14.0273 96.7617 13.832 96.1992 13.832H92.3789V23.5H89.9062V6.83594ZM103.477 15.7188C103.477 14.9141 103.672 14.1836 104.062 13.5273C104.461 12.8711 104.992 12.3477 105.656 11.957C106.32 11.5586 107.055 11.3594 107.859 11.3594H114.633V23.5H112.16V13.832H107.859C107.336 13.832 106.887 14.0195 106.512 14.3945C106.137 14.7617 105.949 15.2109 105.949 15.7422V19.0938C105.949 19.625 106.137 20.082 106.512 20.4648C106.887 20.8398 107.336 21.0273 107.859 21.0273H110.754V23.5H107.859C107.055 23.5 106.32 23.3047 105.656 22.9141C104.992 22.5156 104.461 21.9844 104.062 21.3203C103.672 20.6562 103.477 19.9219 103.477 19.1172V15.7188ZM117.445 14.7578C117.445 14.1328 117.602 13.5625 117.914 13.0469C118.234 12.5312 118.656 12.1211 119.18 11.8164C119.711 11.5117 120.297 11.3594 120.938 11.3594H123.645V13.8203H120.938C120.656 13.8203 120.414 13.918 120.211 14.1133C120.016 14.3008 119.918 14.5312 119.918 14.8047V23.5H117.445V14.7578ZM125.602 8.05469C125.602 7.63281 125.75 7.27344 126.047 6.97656C126.344 6.67969 126.703 6.53125 127.125 6.53125C127.547 6.53125 127.906 6.67969 128.203 6.97656C128.5 7.27344 128.648 7.63281 128.648 8.05469C128.648 8.47656 128.5 8.83594 128.203 9.13281C127.906 9.42969 127.547 9.57812 127.125 9.57812C126.703 9.57812 126.344 9.42969 126.047 9.13281C125.75 8.83594 125.602 8.47656 125.602 8.05469ZM125.883 11.3594H128.367V23.5H125.883V11.3594Z" fill="#8D6AF5"/>
<defs>
<linearGradient id="paint0_linear_370_2221" x1="14" y1="2.21875" x2="14" y2="27.7821" gradientUnits="userSpaceOnUse">
<stop stop-color="#3E14CB"/>
<stop offset="0.5" stop-color="#D578EB"/>
<stop offset="1" stop-color="#FA9552"/>
</linearGradient>
</defs>
</svg>
