<svg width="28" height="26" viewBox="0 0 28 26" fill="none" xmlns="http://www.w3.org/2000/svg">
<path fill-rule="evenodd" clip-rule="evenodd" d="M9.3686 0.262776C8.24932 0.450603 7.04526 1.18499 6.80222 1.82803C6.54196 2.51655 6.97449 3.13012 7.98023 3.49925C8.32752 3.62669 8.43444 3.63994 9.36057 3.67016C10.4339 3.70519 10.4997 3.72005 10.8375 4.0043C11.0993 4.2246 11.2148 4.49992 11.2147 4.90333C11.2146 5.18562 11.1886 5.30403 11.0825 5.50566C10.9054 5.84191 10.6287 6.09886 10.2641 6.26535C9.808 6.47366 9.52244 6.45463 8.63275 6.15688C7.93741 5.92413 7.88029 5.91329 7.3528 5.91374C6.90361 5.91409 6.74821 5.93477 6.51933 6.02452C5.8395 6.29115 5.45968 6.70264 5.14586 7.51267C4.91848 8.09949 4.72408 8.36537 4.36489 8.58096C4.01634 8.79017 3.85793 8.83354 3.21178 8.89683C2.52176 8.96444 2.21241 9.06357 1.77171 9.35832C0.689121 10.0824 0.00186273 11.5294 5.54983e-06 13.0884C-0.000747363 13.7223 0.0749953 14.0456 0.295498 14.3501C0.604845 14.7771 1.30967 14.9093 1.88143 14.6475C2.61146 14.3133 3.30815 13.5114 3.64621 12.6163C3.98588 11.717 4.32795 11.3399 4.92531 11.2066C5.45325 11.0887 5.99796 11.4353 6.22087 12.0309C6.31308 12.2774 6.32984 12.4058 6.31303 12.738C6.28341 13.3235 6.05438 13.7887 5.52724 14.3343C4.74898 15.1398 4.43572 15.6213 4.29126 16.2342C4.19187 16.6556 4.19689 16.956 4.30938 17.3173C4.43085 17.7077 4.54494 17.8688 5.04422 18.3554C5.37942 18.682 5.47278 18.8071 5.54445 19.0257C5.67707 19.4298 5.6215 19.6966 5.245 20.4635C4.82708 21.3149 4.69622 21.7754 4.69592 22.396C4.69552 23.2537 5.05351 24.0127 5.76155 24.6552C6.71664 25.522 7.85334 25.6333 8.47991 24.9214C9.10633 24.2098 9.03837 23.0282 8.29515 21.7097C7.92697 21.0566 7.86032 20.8553 7.85755 20.3882C7.85555 20.0459 7.87778 19.912 7.97029 19.7106C8.30328 18.9857 9.09881 18.6748 9.79962 18.9956C10.1672 19.1639 10.5095 19.5231 10.6447 19.8823C10.742 20.1407 10.7474 20.223 10.7151 20.9444C10.6753 21.8327 10.7202 22.1564 10.945 22.6028C11.1354 22.9807 11.4752 23.3095 11.8832 23.5105C12.2097 23.6713 12.2367 23.6759 12.8478 23.6745C13.1936 23.6737 13.704 23.6536 13.9819 23.6298C14.8062 23.5594 15.1008 23.7026 15.7909 24.5094C16.2493 25.0453 16.7683 25.4354 17.3014 25.6447C17.6096 25.7658 17.7082 25.779 18.3202 25.7815C18.8953 25.7837 19.0548 25.7663 19.3743 25.6665C20.2433 25.3951 21.0045 24.8466 21.2428 24.3202C21.5763 23.5837 21.1956 22.7987 20.2946 22.3653C19.7952 22.1251 19.3543 22.0916 18.6511 22.2405C17.6894 22.4441 17.2215 22.3594 16.7605 21.8984C16.3624 21.5003 16.2869 21.2138 16.4421 20.6912C16.545 20.3446 16.9184 19.9406 17.2811 19.7834C17.8352 19.5433 18.3298 19.5941 19.5163 20.0129C20.6229 20.4036 21.5168 20.2804 22.1986 19.6432C22.4785 19.3817 22.6663 19.1065 22.9899 18.4839C23.2457 17.9919 23.654 17.549 23.9995 17.3887C24.2367 17.2788 24.5207 17.2217 25.3148 17.1246C25.8703 17.0567 26.2167 16.9287 26.5913 16.6529C27.7225 15.8201 28.3436 13.6407 27.8011 12.4074C27.3965 11.4875 26.3412 11.3524 25.4802 12.1103C25.171 12.3824 24.6923 13.1078 24.5191 13.5667C24.0674 14.763 23.5772 15.2369 22.7875 15.2403C21.7837 15.2446 21.1891 14.1455 21.6504 13.138C21.8178 12.7723 22.1901 12.3851 22.7682 11.9753C24.5292 10.727 24.9588 9.12215 23.7914 8.15265C22.8312 7.35516 22.5655 6.91521 22.5716 6.13309C22.575 5.70347 22.6829 5.35543 23.0087 4.72228C23.3432 4.07226 23.4646 3.60305 23.4264 3.10743C23.3487 2.09998 22.5943 1.04455 21.5995 0.551543C20.6929 0.102305 19.9183 0.289832 19.531 1.05233C19.3826 1.34456 19.308 1.79827 19.3443 2.18848C19.3928 2.71029 19.624 3.32869 20.071 4.1317C20.5472 4.98756 20.6461 5.29168 20.6217 5.8257C20.5803 6.7304 19.9921 7.3519 19.1735 7.35597C18.6131 7.35878 18.0695 7.03789 17.8091 6.55065C17.5101 5.99109 17.507 5.51128 17.7968 4.64493C18.0747 3.81452 18.0248 3.15336 17.6359 2.50962C17.2965 1.9479 16.5692 1.50739 16.116 1.47572C15.3866 1.42475 15.0774 2.60254 14.3464 2.61802C14.3316 2.61833 14.3166 2.61845 14.3014 2.61839C13.7806 2.61628 13.3388 2.31903 12.85 1.64206C12.2795 0.851655 11.6773 0.44463 10.8483 0.288978C10.4054 0.205806 9.77447 0.194613 9.3686 0.262776ZM14.715 5.80181C14.9588 5.88889 15.2583 6.13048 15.4305 6.37894C15.5071 6.48942 15.6667 6.81764 15.7851 7.10821C16.0623 7.78844 16.2174 8.0496 16.5544 8.40372C17.0663 8.94165 17.526 9.12802 18.5057 9.19483C19.3266 9.2508 19.5717 9.34341 19.9263 9.73141C20.4585 10.3136 20.4571 11.0583 19.9227 11.7297C19.5972 12.1388 19.2855 12.6264 19.165 12.9151C19.0706 13.1416 19.0522 13.279 19.0516 13.7626C19.051 14.3372 19.0521 14.3425 19.2939 14.9403C19.5184 15.4953 19.5351 15.5657 19.5133 15.8693C19.4863 16.2468 19.3889 16.4685 19.1304 16.7409C18.7738 17.1165 18.6556 17.1504 17.6928 17.1532C16.7559 17.156 16.6068 17.1881 16.1848 17.4785C15.8849 17.6848 15.6267 18.0192 15.3429 18.5687C14.9726 19.2855 14.5662 19.5824 13.9533 19.5835C13.3195 19.5847 12.946 19.2994 12.5479 18.5097C12.2746 17.9677 11.9018 17.5477 11.5085 17.3387C11.1304 17.1379 10.98 17.1136 10.0704 17.1064C9.38898 17.1011 9.28648 17.0888 9.07948 16.9867C8.54873 16.7252 8.26112 16.273 8.2581 15.6951C8.25574 15.2416 8.36336 14.9657 8.71221 14.5309C9.14248 13.9946 9.26018 13.7163 9.26018 13.2356C9.26018 12.745 9.16095 12.5166 8.69941 11.9449C8.24611 11.3834 8.16203 11.2006 8.16183 10.7761C8.16163 10.3557 8.29324 10.0202 8.57247 9.7292C8.93934 9.34697 9.20301 9.23007 9.95281 9.11743C10.8552 8.98181 11.3915 8.70479 11.9787 8.07098C12.2437 7.78503 12.3727 7.58264 12.6289 7.05144C13.0357 6.20773 13.2901 5.9172 13.7407 5.78153C13.9541 5.71723 14.5107 5.72882 14.715 5.80181Z" fill="url(#paint0_linear_1_160)"/>
<defs>
<linearGradient id="paint0_linear_1_160" x1="14" y1="0.218262" x2="14" y2="25.7816" gradientUnits="userSpaceOnUse">
<stop stop-color="#3E14CB"/>
<stop offset="0.5" stop-color="#D578EB"/>
<stop offset="1" stop-color="#FA9552"/>
</linearGradient>
</defs>
</svg>
