<svg width="180" height="40" viewBox="0 0 180 40" fill="none" xmlns="http://www.w3.org/2000/svg">
<path fill-rule="evenodd" clip-rule="evenodd" d="M12.947 2.39745C11.4002 2.65702 9.73625 3.67192 9.40038 4.56057C9.04072 5.51207 9.63845 6.36 11.0283 6.87012C11.5083 7.04624 11.656 7.06456 12.9359 7.10631C14.4192 7.15473 14.5101 7.17526 14.9769 7.56808C15.3388 7.87253 15.4984 8.25301 15.4982 8.8105C15.4981 9.20062 15.4622 9.36425 15.3155 9.6429C15.0709 10.1076 14.6884 10.4627 14.1846 10.6928C13.5542 10.9806 13.1596 10.9543 11.9301 10.5429C10.9692 10.2212 10.8902 10.2062 10.1613 10.2068C9.5405 10.2073 9.32574 10.2359 9.00943 10.3599C8.06994 10.7284 7.54504 11.2971 7.11137 12.4165C6.79714 13.2275 6.52848 13.5949 6.0321 13.8928C5.55042 14.1819 5.3315 14.2419 4.43855 14.3294C3.48497 14.4228 3.05746 14.5598 2.44843 14.9671C0.952337 15.9678 0.00257422 17.9674 7.66964e-06 20.1219C-0.00103282 20.9979 0.10364 21.4448 0.408366 21.8655C0.835871 22.4557 1.80991 22.6383 2.60006 22.2766C3.60893 21.8147 4.57173 20.7065 5.03891 19.4695C5.50831 18.2267 5.98104 17.7056 6.80657 17.5213C7.53616 17.3584 8.28893 17.8374 8.59698 18.6605C8.72441 19.0011 8.74758 19.1786 8.72434 19.6377C8.68341 20.4468 8.36689 21.0897 7.63841 21.8437C6.56289 22.9569 6.12997 23.6223 5.93034 24.4692C5.79299 25.0516 5.79993 25.4668 5.95538 25.9661C6.12324 26.5056 6.28091 26.7283 6.9709 27.4007C7.43413 27.8521 7.56315 28.0249 7.6622 28.327C7.84547 28.8855 7.76868 29.2541 7.24836 30.314C6.67082 31.4906 6.48998 32.127 6.48957 32.9846C6.48901 34.17 6.98373 35.2188 7.96221 36.1068C9.28211 37.3046 10.853 37.4584 11.7189 36.4747C12.5846 35.4912 12.4906 33.8583 11.4635 32.0362C10.9547 31.1336 10.8626 30.8555 10.8588 30.21C10.856 29.7368 10.8868 29.5518 11.0146 29.2735C11.4748 28.2718 12.5742 27.842 13.5427 28.2855C14.0506 28.518 14.5237 29.0144 14.7106 29.5108C14.8449 29.8679 14.8524 29.9816 14.8078 30.9786C14.7528 32.2061 14.8148 32.6536 15.1255 33.2704C15.3886 33.7926 15.8583 34.2471 16.4221 34.5248C16.8733 34.7471 16.9106 34.7534 17.7551 34.7515C18.233 34.7504 18.9383 34.7225 19.3225 34.6897C20.4616 34.5923 20.8687 34.7902 21.8224 35.9053C22.4558 36.6458 23.1731 37.185 23.9098 37.4742C24.3357 37.6415 24.472 37.6598 25.3178 37.6632C26.1124 37.6663 26.333 37.6422 26.7745 37.5043C27.9753 37.1292 29.0274 36.3712 29.3567 35.6439C29.8176 34.626 29.2914 33.5411 28.0463 32.9422C27.3561 32.6103 26.7468 32.564 25.775 32.7697C24.4461 33.0511 23.7994 32.9341 23.1624 32.297C22.6122 31.7468 22.5078 31.3509 22.7222 30.6286C22.8645 30.1496 23.3805 29.5914 23.8818 29.3741C24.6474 29.0424 25.331 29.1126 26.9707 29.6913C28.5 30.2312 29.7353 30.0609 30.6776 29.1804C31.0643 28.819 31.3239 28.4387 31.7711 27.5783C32.1246 26.8983 32.6888 26.2863 33.1662 26.0648C33.4941 25.9128 33.8865 25.834 34.984 25.6997C35.7517 25.6059 36.2304 25.429 36.748 25.0479C38.3113 23.897 39.1696 20.8852 38.42 19.1808C37.8608 17.9096 36.4024 17.7228 35.2126 18.7702C34.7852 19.1463 34.1237 20.1488 33.8843 20.783C33.2602 22.4362 32.5827 23.091 31.4914 23.0957C30.1041 23.1018 29.2825 21.5828 29.92 20.1905C30.1513 19.6851 30.6658 19.15 31.4647 18.5837C33.8983 16.8586 34.492 14.6407 32.8787 13.3009C31.5517 12.1988 31.1845 11.5908 31.193 10.51C31.1978 9.91627 31.3468 9.43529 31.7971 8.5603C32.2593 7.66201 32.4271 7.01357 32.3743 6.32865C32.267 4.9364 31.2244 3.47783 29.8496 2.79652C28.5967 2.17569 27.5262 2.43484 26.991 3.48859C26.7859 3.89244 26.6828 4.51944 26.733 5.05869C26.8 5.77982 27.1196 6.63442 27.7372 7.74414C28.3954 8.9269 28.5321 9.34719 28.4983 10.0852C28.4411 11.3354 27.6282 12.1943 26.497 12.1999C25.7225 12.2038 24.9713 11.7604 24.6114 11.087C24.1982 10.3137 24.1939 9.65067 24.5944 8.4534C24.9784 7.30581 24.9096 6.39212 24.372 5.5025C23.9031 4.72622 22.8979 4.11746 22.2716 4.07369C21.2636 4.00325 20.8363 5.63091 19.8261 5.6523C19.8057 5.65273 19.785 5.6529 19.7639 5.65281C19.0442 5.6499 18.4336 5.23911 17.7582 4.30357C16.9697 3.21126 16.1375 2.64877 14.9919 2.43366C14.3798 2.31872 13.5079 2.30326 12.947 2.39745ZM20.3356 10.0522C20.6725 10.1725 21.0864 10.5064 21.3243 10.8497C21.4302 11.0024 21.6507 11.456 21.8143 11.8576C22.1974 12.7976 22.4118 13.1585 22.8775 13.6479C23.5849 14.3913 24.2201 14.6489 25.5742 14.7412C26.7085 14.8185 27.0473 14.9465 27.5374 15.4827C28.2727 16.2873 28.2708 17.3164 27.5323 18.2443C27.0825 18.8096 26.6517 19.4835 26.4853 19.8825C26.3547 20.1954 26.3293 20.3853 26.3285 21.0536C26.3276 21.8478 26.3291 21.8551 26.6634 22.6812C26.9736 23.4481 26.9967 23.5455 26.9666 23.965C26.9293 24.4867 26.7947 24.793 26.4374 25.1695C25.9446 25.6886 25.7813 25.7355 24.4507 25.7393C23.1559 25.7432 22.9499 25.7875 22.3667 26.1888C21.9523 26.4739 21.5954 26.9361 21.2032 27.6955C20.6915 28.6861 20.1298 29.0963 19.2829 29.0979C18.407 29.0996 17.8909 28.7052 17.3407 27.614C16.963 26.8649 16.4478 26.2846 15.9042 25.9957C15.3817 25.7181 15.1739 25.6845 13.9168 25.6747C12.9752 25.6673 12.8335 25.6503 12.5475 25.5092C11.814 25.1479 11.4165 24.5229 11.4124 23.7242C11.4091 23.0976 11.5578 22.7163 12.0399 22.1154C12.6345 21.3742 12.7972 20.9896 12.7972 20.3253C12.7972 19.6473 12.66 19.3317 12.0222 18.5417C11.3958 17.7658 11.2796 17.5131 11.2793 16.9264C11.279 16.3454 11.4609 15.8818 11.8468 15.4797C12.3538 14.9514 12.7182 14.7899 13.7544 14.6342C15.0014 14.4468 15.7426 14.064 16.5541 13.1881C16.9203 12.7929 17.0986 12.5132 17.4526 11.7791C18.0148 10.6131 18.3663 10.2116 18.9891 10.0241C19.284 9.93528 20.0532 9.9513 20.3356 10.0522Z" fill="url(#paint0_linear_829_5884)"/>
<path d="M51.6934 14.542C51.6934 13.5163 51.9471 12.5824 52.4545 11.7403C52.9728 10.8982 53.6637 10.2288 54.5275 9.73212C55.402 9.22469 56.3629 8.97097 57.4101 8.97097H69.3295V12.3719H57.4101C56.7839 12.3719 56.2441 12.5932 55.7907 13.0359C55.3372 13.4785 55.1105 14.013 55.1105 14.6392V16.2262C55.1105 16.7985 55.3372 17.2897 55.7907 17.7C56.2441 18.1102 56.7839 18.3154 57.4101 18.3154H64.7464C65.8045 18.3154 66.7654 18.5691 67.6291 19.0765C68.4928 19.5732 69.1784 20.248 69.6858 21.1009C70.2041 21.943 70.4632 22.8769 70.4632 23.9026V26.4128C70.4632 27.4385 70.2041 28.3778 69.6858 29.2307C69.1784 30.0728 68.4928 30.7476 67.6291 31.255C66.7654 31.7517 65.8045 32 64.7464 32H51.7096V28.5829H64.7464C65.3834 28.5829 65.9232 28.3724 66.3659 27.9513C66.8193 27.5194 67.0461 27.0012 67.0461 26.3966V23.9188C67.0461 23.3142 66.8193 22.7959 66.3659 22.3641C65.9232 21.9322 65.3834 21.7163 64.7464 21.7163H57.4101C56.3629 21.7163 55.402 21.4734 54.5275 20.9875C53.6637 20.4909 52.9728 19.8269 52.4545 18.9956C51.9471 18.1642 51.6934 17.2465 51.6934 16.2424V14.542ZM77.0221 15.2222L81.3785 26.85L85.8321 15.2222H89.6054L80.6983 38.316H76.9573L79.5647 31.4494L73.3944 15.2222H77.0221ZM91.8889 18.6231C91.8889 17.6838 92.2236 16.8848 92.893 16.2262C93.5732 15.5569 94.3883 15.2222 95.3384 15.2222H101.25C102.362 15.2222 103.376 15.4975 104.294 16.0481C105.212 16.5879 105.941 17.3167 106.48 18.2344C107.031 19.1521 107.306 20.167 107.306 21.279V32H103.889V21.3276C103.889 20.5719 103.63 19.9295 103.112 19.4004C102.604 18.8714 101.984 18.6069 101.25 18.6069H95.306V32H91.8889V18.6231ZM110.383 15.2222H112.57V8.97097H115.987V15.2222H121.153V18.6393H115.987V27.2387C115.987 27.6058 116.127 27.9243 116.408 28.1942C116.699 28.4533 117.045 28.5829 117.444 28.5829H121.153V32H117.396C116.51 32 115.701 31.7895 114.967 31.3684C114.243 30.9365 113.66 30.3643 113.217 29.6518C112.786 28.9284 112.57 28.1294 112.57 27.2549V18.6393H110.383V15.2222ZM124.246 8.97097H127.663V15.2222H132.943C134.109 15.2222 135.167 15.4975 136.117 16.0481C137.078 16.5879 137.839 17.3167 138.4 18.2344C138.973 19.1413 139.259 20.1508 139.259 21.2628V32H135.842V21.3114C135.842 20.5988 135.55 19.978 134.967 19.449C134.395 18.9092 133.72 18.6393 132.943 18.6393H127.663V32H124.246V8.97097ZM143 21.2466C143 20.1346 143.27 19.1251 143.81 18.2182C144.36 17.3113 145.094 16.5879 146.012 16.0481C146.93 15.4975 147.945 15.2222 149.057 15.2222H158.417V32H155V18.6393H149.057C148.333 18.6393 147.712 18.8984 147.194 19.4166C146.676 19.9241 146.417 20.5449 146.417 21.279V25.9107C146.417 26.6449 146.676 27.2765 147.194 27.8055C147.712 28.3238 148.333 28.5829 149.057 28.5829H153.057V32H149.057C147.945 32 146.93 31.7301 146.012 31.1903C145.094 30.6396 144.36 29.9055 143.81 28.9878C143.27 28.0701 143 27.0552 143 25.9431V21.2466ZM162.304 19.9187C162.304 19.0549 162.52 18.2668 162.952 17.5542C163.394 16.8416 163.977 16.2748 164.701 15.8538C165.435 15.4327 166.245 15.2222 167.13 15.2222H170.871V18.6231H167.13C166.741 18.6231 166.407 18.758 166.126 19.028C165.856 19.2871 165.721 19.6056 165.721 19.9834V32H162.304V19.9187ZM173.576 10.6552C173.576 10.0722 173.781 9.57557 174.191 9.16531C174.601 8.75504 175.098 8.5499 175.681 8.5499C176.264 8.5499 176.761 8.75504 177.171 9.16531C177.581 9.57557 177.786 10.0722 177.786 10.6552C177.786 11.2382 177.581 11.7349 177.171 12.1452C176.761 12.5554 176.264 12.7606 175.681 12.7606C175.098 12.7606 174.601 12.5554 174.191 12.1452C173.781 11.7349 173.576 11.2382 173.576 10.6552ZM173.964 15.2222H177.398V32H173.964V15.2222Z" fill="#DBDFFF"/>
<defs>
<linearGradient id="paint0_linear_829_5884" x1="19.3474" y1="2.33594" x2="19.3474" y2="37.6634" gradientUnits="userSpaceOnUse">
<stop stop-color="#3E14CB"/>
<stop offset="0.5" stop-color="#D578EB"/>
<stop offset="1" stop-color="#FA9552"/>
</linearGradient>
</defs>
</svg>
