<svg width="24" height="24" viewBox="0 0 24 24" fill="none" xmlns="http://www.w3.org/2000/svg">
<path d="M12 0.889648C9.75024 0.889648 7.551 1.55678 5.68039 2.80668C3.80978 4.05658 2.35182 5.83311 1.49088 7.91162C0.629929 9.99013 0.404666 12.2773 0.843573 14.4838C1.28248 16.6903 2.36584 18.7172 3.95667 20.308C5.54749 21.8988 7.57432 22.9822 9.78085 23.4211C11.9874 23.86 14.2745 23.6347 16.353 22.7738C18.4315 21.9128 20.2081 20.4549 21.458 18.5843C22.7079 16.7136 23.375 14.5144 23.375 12.2646C23.3718 9.24879 22.1724 6.35736 20.0398 4.22483C17.9073 2.09229 15.0159 0.892833 12 0.889648ZM16.1191 12.0087C16.0378 12.0901 15.9413 12.1546 15.8351 12.1986C15.7289 12.2427 15.615 12.2653 15.5 12.2653C15.385 12.2653 15.2712 12.2427 15.1649 12.1986C15.0587 12.1546 14.9622 12.0901 14.8809 12.0087L12.875 10.0017V16.6396C12.875 16.8717 12.7828 17.0943 12.6187 17.2584C12.4546 17.4225 12.2321 17.5146 12 17.5146C11.7679 17.5146 11.5454 17.4225 11.3813 17.2584C11.2172 17.0943 11.125 16.8717 11.125 16.6396V10.0017L9.11907 12.0087C8.95488 12.1729 8.7322 12.2651 8.5 12.2651C8.26781 12.2651 8.04513 12.1729 7.88094 12.0087C7.71676 11.8445 7.62452 11.6218 7.62452 11.3896C7.62452 11.1575 7.71676 10.9348 7.88094 10.7706L11.3809 7.27059C11.4622 7.18923 11.5587 7.12469 11.6649 7.08066C11.7712 7.03662 11.885 7.01396 12 7.01396C12.115 7.01396 12.2289 7.03662 12.3351 7.08066C12.4413 7.12469 12.5378 7.18923 12.6191 7.27059L16.1191 10.7706C16.2004 10.8518 16.265 10.9484 16.309 11.0546C16.353 11.1608 16.3757 11.2747 16.3757 11.3896C16.3757 11.5046 16.353 11.6185 16.309 11.7247C16.265 11.8309 16.2004 11.9274 16.1191 12.0087Z" fill="#00DBBC"/>
</svg>
