<svg width="10" height="13" viewBox="0 0 10 13" fill="none" xmlns="http://www.w3.org/2000/svg">
<path d="M5.84109 0.976083C5.78716 0.931244 5.72324 0.900028 5.65471 0.885068C5.58619 0.870108 5.51507 0.871842 5.44736 0.890124C5.37965 0.908406 5.31732 0.9427 5.26564 0.990116C5.21395 1.03753 5.17443 1.09668 5.15039 1.16257L3.94727 4.46624L2.62602 3.18601C2.58164 3.14297 2.52866 3.10982 2.47054 3.08875C2.41243 3.06768 2.35051 3.05917 2.28887 3.06377C2.22723 3.06836 2.16726 3.08597 2.11292 3.11543C2.05857 3.14489 2.01109 3.18553 1.97359 3.23468C0.789063 4.78671 0.1875 6.34804 0.1875 7.87491C0.1875 9.15127 0.69453 10.3753 1.59705 11.2779C2.49957 12.1804 3.72365 12.6874 5 12.6874C6.27635 12.6874 7.50043 12.1804 8.40295 11.2779C9.30547 10.3753 9.8125 9.15127 9.8125 7.87491C9.8125 4.62374 7.03492 1.96866 5.84109 0.976083ZM8.05648 8.38569C7.94304 9.01936 7.63817 9.60306 7.18293 10.0582C6.72769 10.5133 6.14393 10.8181 5.51023 10.9314C5.48621 10.9355 5.46187 10.9375 5.4375 10.9374C5.32776 10.9374 5.22203 10.8961 5.14129 10.8218C5.06056 10.7475 5.0107 10.6455 5.00162 10.5361C4.99253 10.4268 5.02488 10.318 5.09225 10.2313C5.15961 10.1447 5.25708 10.0866 5.36531 10.0684C6.27148 9.91585 7.04039 9.14694 7.19406 8.23913C7.2135 8.12469 7.2776 8.02266 7.37226 7.95549C7.46692 7.88831 7.58439 7.86149 7.69883 7.88093C7.81327 7.90036 7.91529 7.96446 7.98247 8.05912C8.04965 8.15379 8.07647 8.27126 8.05703 8.38569H8.05648Z" fill="url(#paint0_linear_4_4968)"/>
<defs>
<linearGradient id="paint0_linear_4_4968" x1="5" y1="0.875" x2="5" y2="12.6874" gradientUnits="userSpaceOnUse">
<stop stop-color="#DBDFFF"/>
<stop offset="1" stop-color="#623AFF"/>
</linearGradient>
</defs>
</svg>
